<svg xmlns="http://www.w3.org/2000/svg" width="14.666" height="13.333" viewBox="0 0 14.666 13.333">
  <g id="_67" data-name="67" transform="translate(-0.667 -1.333)">
    <path id="Base" d="M11.667,13.333H3a3,3,0,0,1-3-3V3A3,3,0,0,1,3,0h8.667a3,3,0,0,1,3,3v7.333A3,3,0,0,1,11.667,13.333ZM2.334,2.667a1,1,0,0,0-1,1V11a1,1,0,0,0,1,1h10a1,1,0,0,0,1-1V3.667a1,1,0,0,0-1-1Z" transform="translate(0.667 1.333)" fill="#c9cfdb"/>
    <path id="_1" data-name="1" d="M0,1.333,1.333,0V4" transform="translate(5.333 6.667)" fill="none" stroke="#2e7eff" stroke-linecap="round" stroke-linejoin="round" stroke-miterlimit="10" stroke-width="1"/>
    <path id="_1-2" data-name="1" d="M0,1.333,1.333,0V4" transform="translate(8.667 6.667)" fill="none" stroke="#2e7eff" stroke-linecap="round" stroke-linejoin="round" stroke-miterlimit="10" stroke-width="1"/>
  </g>
</svg>
