<?xml version="1.0" encoding="UTF-8"?>
<svg width="120px" height="224px" viewBox="0 0 120 224" version="1.1" xmlns="http://www.w3.org/2000/svg" xmlns:xlink="http://www.w3.org/1999/xlink">
    <!-- Generator: Sketch 54.1 (76490) - https://sketchapp.com -->
    <title>Group 14</title>
    <desc>Created with Sketch.</desc>
    <g id="Welcome" stroke="none" stroke-width="1" fill="none" fill-rule="evenodd">
        <g id="Discover---Anonymous-Copy" transform="translate(-454.000000, -186.000000)" stroke-width="2">
            <g id="Group-15" transform="translate(67.000000, 186.000000)">
                <g id="Group-10" transform="translate(0.500000, 0.000000)">
                    <g id="Group-14" transform="translate(559.733525, 66.535920) rotate(-48.000000) translate(-559.733525, -66.535920) translate(390.233525, -86.464080)">
                        <path d="M169.370435,30.9555266 C169.370435,25.0316615 169.370435,18.829805 169.370435,12.3024217 C95.9166096,12.3024217 36.3704353,71.0308199 36.3704353,143.475869 C36.3704353,215.920918 95.9166096,274.649317 169.370435,274.649317 C169.370435,280.604471 169.370435,286.811141 169.370435,293.302422 C242.824261,293.302422 302.370435,234.574023 302.370435,162.128974 C302.370435,89.6839249 242.824261,30.9555266 169.370435,30.9555266 Z" id="XMLID_7_-Copy" stroke="#1F41DE"></path>
                        <path d="M273.094739,259.988652 C278.137533,265.199756 283.416972,270.655402 288.973521,276.397409 C353.075846,214.623281 355.047543,112.883212 293.377426,49.1547781 C231.707309,-14.5736554 129.748456,-16.157936 65.6461315,45.6161911 C60.5767022,40.3775633 55.2931654,34.917682 49.7673492,29.2074348 C-14.3349757,90.9815619 -16.3066724,192.721632 45.3634448,256.450065 C107.033562,320.178499 208.992414,321.762779 273.094739,259.988652 Z" id="XMLID_7_-Copy" stroke="#FFFFFF"></path>
                    </g>
                </g>
            </g>
        </g>
    </g>
</svg>