<svg width="48" height="48" viewBox="0 0 48 48" fill="none" xmlns="http://www.w3.org/2000/svg">
<path d="M0 24C0 10.7452 10.7452 0 24 0C37.2548 0 48 10.7452 48 24C48 37.2548 37.2548 48 24 48C10.7452 48 0 37.2548 0 24Z" fill="#1A1A1F"/>
<path d="M16.3971 16.5538L16.4697 16.4697C16.7359 16.2034 17.1526 16.1792 17.4462 16.3971L17.5303 16.4697L24 22.939L30.4697 16.4697C30.7626 16.1768 31.2374 16.1768 31.5303 16.4697C31.8232 16.7626 31.8232 17.2374 31.5303 17.5303L25.061 24L31.5303 30.4697C31.7966 30.7359 31.8208 31.1526 31.6029 31.4462L31.5303 31.5303C31.2641 31.7966 30.8474 31.8208 30.5538 31.6029L30.4697 31.5303L24 25.061L17.5303 31.5303C17.2374 31.8232 16.7626 31.8232 16.4697 31.5303C16.1768 31.2374 16.1768 30.7626 16.4697 30.4697L22.939 24L16.4697 17.5303C16.2034 17.2641 16.1792 16.8474 16.3971 16.5538L16.4697 16.4697L16.3971 16.5538Z" fill="#FAFAFF"/>
</svg>
