<svg xmlns="http://www.w3.org/2000/svg" width="543.802" height="663.603" viewBox="0 0 543.802 663.603"><defs><style>.a{fill:none;stroke:#ff6a82;stroke-linecap:round;stroke-width:4px;}</style></defs><g transform="translate(-767.899 -89.007)"><path class="a" d="M-12963,259s-16-36,27-35,53-30,47-56-9-56,35-46,57,11,59-10,16-30,39-9" transform="translate(13803)"/><path class="a" d="M-12493.477,561.538s-49.993,4.689-40.891,32,.535,53.25-19.465,50.25S-12604,647-12601,660s19,48-10,47-36.209-4.5-40.351,14.439-11.241,36.938-43.241,20.938-41.875-2.731-45.062,7.738" transform="translate(13803)"/><path class="a" d="M-12993.07,561.538l16.579,16.579" transform="translate(13794 -43)"/><path class="a" d="M-12993.07,561.538l16.579,16.579" transform="matrix(0.53, 0.848, -0.848, 0.53, 8147.346, 11256.584)"/><path class="a" d="M-12993.07,561.538l16.579,16.579" transform="translate(-212.647 13527.267) rotate(97)"/><path class="a" d="M-12569.229,243.2s24.261,15.976,21.894,50.3" transform="translate(13803)"/><path class="a" d="M-12571.6,218.935s49.7,20.118,42.6,73.373" transform="translate(13803)"/></g></svg>