<svg class="fb" xmlns="http://www.w3.org/2000/svg" width="8.75" height="16" viewBox="0 0 8.75 16">
<defs>
    <style>
      .fb .cls-1 {
        fill-rule: evenodd;
        opacity: 0.6;
      }
    </style>
  </defs>
  <path id="Forma_1" data-name="Forma 1" class="cls-1" d="M1398.67,2236.01h-2.1a3.654,3.654,0,0,0-3.87,3.93v1.82h-2.11a0.324,0.324,0,0,0-.33.32v2.63a0.333,0.333,0,0,0,.33.33h2.11v6.63a0.324,0.324,0,0,0,.33.32h2.75a0.324,0.324,0,0,0,.33-0.32v-6.63h2.46a0.333,0.333,0,0,0,.33-0.33v-2.63a0.345,0.345,0,0,0-.1-0.23,0.317,0.317,0,0,0-.23-0.09h-2.46v-1.54a0.927,0.927,0,0,1,1.15-1.11l1.41-.01a0.324,0.324,0,0,0,.33-0.32v-2.44A0.333,0.333,0,0,0,1398.67,2236.01Z" transform="translate(-1390.25 -2236)"/>
</svg>
