<svg xmlns="http://www.w3.org/2000/svg" width="22" height="27" viewBox="0 0 22 27">
  <g id="Group_2" data-name="Group 2" transform="translate(-3.75)">
    <g id="Front_Page" data-name="Front Page" transform="translate(10 6.25)" fill="none" stroke-linejoin="round" stroke-miterlimit="10">
      <path d="M0,1A1,1,0,0,1,1,0H8.744L13.75,5V17.75a1,1,0,0,1-1,1H1a1,1,0,0,1-1-1Z" stroke="none"/>
      <path d="M 1 0 C 0.4477100372314453 0 0 0.4477195739746094 0 1 L 0 17.75 C 0 18.30228042602539 0.4477100372314453 18.75 1 18.75 L 12.75 18.75 C 13.30228042602539 18.75 13.75 18.30228042602539 13.75 17.75 L 13.75 5 L 8.743900299072266 0 L 1 0 M 1 -2 L 8.743900299072266 -2 C 9.273910522460938 -2 9.782249450683594 -1.789619445800781 10.15724945068359 -1.415079116821289 L 15.16335010528564 3.584919929504395 C 15.53894996643066 3.96006965637207 15.75 4.46914005279541 15.75 5 L 15.75 17.75 C 15.75 19.40420913696289 14.40421009063721 20.75 12.75 20.75 L 1 20.75 C -0.654210090637207 20.75 -2 19.40420913696289 -2 17.75 L -2 1 C -2 -0.6542091369628906 -0.654210090637207 -2 1 -2 Z" stroke="none" fill="#c9cfdb"/>
    </g>
    <path id="Back_Page" data-name="Back Page" d="M3.75,23.75h0A3.757,3.757,0,0,1,0,20V3.751A3.753,3.753,0,0,1,3.746,0h7.5A2.485,2.485,0,0,1,13.01.731L17.285,5H13.747l-2.5-2.5h-7.5A1.25,1.25,0,0,0,2.5,3.751V20A1.254,1.254,0,0,0,3.75,21.25v2.5Z" transform="translate(3.75)" fill="#2e7eff"/>
    <path id="Curl" d="M0,0V5H5" transform="translate(16.25 8.75)" fill="none" stroke="#2e7eff" stroke-linecap="round" stroke-linejoin="round" stroke-miterlimit="10" stroke-width="2"/>
  </g>
</svg>
