<svg xmlns="http://www.w3.org/2000/svg" width="14.769" height="14.769" viewBox="0 0 14.769 14.769">
  <g id="_70" data-name="70" transform="translate(-2.461 -2.462)">
    <path id="Combined_Shape" data-name="Combined Shape" d="M2.461,14.769A2.451,2.451,0,0,1,.033,12.712a.593.593,0,0,1-.033-.2V12.1a.59.59,0,0,1,.033-.2,2.462,2.462,0,0,1,4.75-.416h9.37a.616.616,0,0,1,.616.615v.41a.616.616,0,0,1-.616.616H4.783A2.466,2.466,0,0,1,2.461,14.769Zm0-3.281a.82.82,0,1,0,.821.82A.821.821,0,0,0,2.461,11.488ZM7.385,9.846A2.465,2.465,0,0,1,5.063,8.205H.616A.616.616,0,0,1,0,7.59v-.41a.616.616,0,0,1,.616-.616H5.063a2.462,2.462,0,0,1,4.642,0h4.448a.616.616,0,0,1,.616.616v.41a.616.616,0,0,1-.616.616H9.706A2.466,2.466,0,0,1,7.385,9.846Zm0-3.282a.821.821,0,1,0,.821.821A.822.822,0,0,0,7.385,6.564Zm4.923-1.641A2.465,2.465,0,0,1,9.986,3.282H.616A.616.616,0,0,1,0,2.667v-.41a.616.616,0,0,1,.616-.616H9.986a2.462,2.462,0,1,1,2.321,3.282Zm0-3.282a.821.821,0,1,0,.821.821A.821.821,0,0,0,12.307,1.641Z" transform="translate(2.462 2.462)" fill="#2e7eff"/>
  </g>
</svg>
