<svg xmlns="http://www.w3.org/2000/svg" width="18" height="12" viewBox="0 0 18 12">
  <g id="_44" data-name="44" transform="translate(-3 -6)">
    <g id="Combined_Shape" data-name="Combined Shape" transform="translate(3 6)" fill="none" stroke-miterlimit="10">
      <path d="M1,12a1,1,0,0,1,0-2H17a1,1,0,0,1,0,2ZM1,7A1,1,0,0,1,1,5H17a1,1,0,0,1,0,2ZM1,2A1,1,0,0,1,1,0H17a1,1,0,0,1,0,2Z" stroke="none"/>
      <path d="M 17.00009918212891 11.99970054626465 L 0.9998999834060669 11.99970054626465 C 0.447299987077713 11.99970054626465 0 11.55240058898926 0 10.99980068206787 C 0 10.44810009002686 0.447299987077713 9.999899864196777 0.9998999834060669 9.999899864196777 L 17.00009918212891 9.999899864196777 C 17.55270004272461 9.999899864196777 18 10.44810009002686 18 10.99980068206787 C 18 11.55240058898926 17.55270004272461 11.99970054626465 17.00009918212891 11.99970054626465 Z M 17.00009918212891 7.000200271606445 L 0.9998999834060669 7.000200271606445 C 0.447299987077713 7.000200271606445 0 6.552000045776367 0 6.000300407409668 C 0 5.447700500488281 0.447299987077713 5.000400066375732 0.9998999834060669 5.000400066375732 L 17.00009918212891 5.000400066375732 C 17.55270004272461 5.000400066375732 18 5.447700500488281 18 6.000300407409668 C 18 6.552000045776367 17.55270004272461 7.000200271606445 17.00009918212891 7.000200271606445 Z M 17.00009918212891 1.999800324440002 L 0.9998999834060669 1.999800324440002 C 0.447299987077713 1.999800324440002 0 1.552500247955322 0 0.9999002814292908 C 0 0.4473002851009369 0.447299987077713 2.731323149873788e-07 0.9998999834060669 2.731323149873788e-07 L 17.00009918212891 2.731323149873788e-07 C 17.55270004272461 2.731323149873788e-07 18 0.4473002851009369 18 0.9999002814292908 C 18 1.552500247955322 17.55270004272461 1.999800324440002 17.00009918212891 1.999800324440002 Z" stroke="none" fill="#2e7eff"/>
    </g>
  </g>
</svg>
