<svg width="24" height="24" viewBox="0 0 24 24" fill="none" xmlns="http://www.w3.org/2000/svg">
<path d="M19.5871 7.16294C19.4937 7.22144 17.2694 8.45588 17.2694 11.1929C17.3742 14.3144 20.0763 15.409 20.1227 15.409C20.0763 15.4675 19.7147 16.9002 18.6436 18.4021C17.7935 19.6958 16.8501 21.0001 15.4173 21.0001C14.0545 21.0001 13.5653 20.1379 11.9928 20.1379C10.3041 20.1379 9.82625 21.0001 8.53331 21.0001C7.10059 21.0001 6.08721 19.6259 5.19081 18.3444C4.02625 16.667 3.03642 14.0348 3.00148 11.5074C2.97793 10.1682 3.23469 8.85166 3.88648 7.73345C4.80642 6.17235 6.44881 5.11262 8.24236 5.07768C9.61658 5.03134 10.8396 6.02118 11.6783 6.02118C12.482 6.02118 13.9846 5.07768 15.6847 5.07768C16.4186 5.07844 18.3754 5.2995 19.5871 7.16294ZM11.5621 4.81028C11.3175 3.58723 11.9928 2.36418 12.6218 1.58401C13.4255 0.640514 14.6949 0.00012207 15.7896 0.00012207C15.8595 1.22317 15.4166 2.42267 14.625 3.29628C13.9147 4.23978 12.6917 4.95006 11.5621 4.81028Z" fill="#FAFAFF"/>
</svg>
