<?xml version="1.0" encoding="UTF-8"?>
<svg width="120px" height="36px" viewBox="0 0 120 36" version="1.1" xmlns="http://www.w3.org/2000/svg" xmlns:xlink="http://www.w3.org/1999/xlink">
    <!-- Generator: Sketch 54.1 (76490) - https://sketchapp.com -->
    <title>logo_tagline</title>
    <desc>Created with Sketch.</desc>
    <g id="Symbols" stroke="none" stroke-width="1" fill="none" fill-rule="evenodd">
        <g id="Footer" transform="translate(-68.000000, -33.000000)">
            <g id="Group-18">
                <g id="logo_tagline" transform="translate(67.000000, 33.000000)">
                    <g id="blue_logo" transform="translate(1.000000, 0.000000)" fill="#2E7EFF" fill-rule="nonzero">
                        <path d="M58.9382907,19.0915619 C58.3238025,19.0915619 57.819011,18.8892507 57.4389864,18.4915001 C57.0553401,18.0917695 56.8764844,17.4120411 56.8764844,16.3522659 L56.8764844,10.3776212 L61.3500982,10.3776212 L61.3500982,6.40954966 L56.8764844,6.40954966 L56.8764844,0 L52.5866329,0 L52.5866329,6.40954966 L50.000993,6.40954966 L50.000993,10.3776212 L52.5866329,10.3776212 L52.5866329,16.6285366 C52.5866329,17.8594086 52.728339,18.8956566 53.0078961,19.708745 C53.2802101,20.5015673 53.6573142,21.1511295 54.1290448,21.6396115 C54.5958689,22.1235511 55.1436512,22.456427 55.8037002,22.657224 C56.5000812,22.8689694 57.2646867,22.9763563 58.0766054,22.9763563 C59.2638759,22.9763563 60.2108419,22.817489 60.8914517,22.5041803 C61.3849114,22.2769442 61.1495134,22.3973758 61.3789534,22.2769442 L61.3789534,18.0647481 C60.9229939,18.4460762 60.4940204,18.7023137 60.4165669,18.7457576 C60.0086215,18.9752067 59.5113067,19.0915619 58.9382907,19.0915619 Z M64.2813001,22.9969717 L68.5711515,22.9969717 L68.5711515,6.40954966 L64.2813001,6.40954966 L64.2813001,22.9969717 Z M66.4172888,0 C65.8057213,0 65.2918176,0.202078259 64.8466058,0.617765467 C64.4128426,1.02297023 64.2018605,1.53474652 64.2018605,2.18209578 C64.2018605,2.85122523 64.4126089,3.37325103 64.8466058,3.77822285 C65.2914671,4.19379358 65.8051372,4.39587184 66.4172888,4.39587184 C67.0274545,4.39587184 67.5349329,4.1949583 67.9689298,3.78148405 C68.3943986,3.37616282 68.6014086,2.85285583 68.6014086,2.18209578 C68.6014086,1.53299945 68.3943986,1.02029138 67.9690466,0.614620733 C67.5345825,0.201030014 67.0269872,0 66.4172888,0 Z M80.2159353,6.41292734 C76.9357837,6.41292734 75.7547047,8.19040071 75.7547047,8.19040071 L75.7547047,6.42166271 L71.6094799,6.41118026 L71.6094799,22.9970882 L75.9910374,22.9969717 C75.9910374,22.9969717 75.9910374,15.9711707 75.9910374,13.8836499 C75.9910374,11.7961291 77.6626554,10.3939273 79.9680373,10.3939273 C81.9877873,10.4714974 82.6094017,12.2358095 82.6094017,13.9143984 L82.6094017,22.9970882 L86.8810288,22.9970882 C86.882898,21.0288343 86.8810288,14.7216632 86.8810288,12.9048224 C86.880912,9.61834276 84.0682853,6.41292734 80.2159353,6.41292734 Z M99.3962596,6.42841806 C95.9023221,6.42841806 94.1777833,8.21124913 94.1777833,8.21124913 L94.1777833,6.42329331 L89.9046375,6.42329331 L89.9046375,22.9969717 L94.1777833,22.9969717 L94.1768488,16.54689 C94.1768488,14.2917665 94.5365463,12.9490816 95.3787221,12.0663432 C96.3509218,10.8886987 97.6930994,10.2665073 99.2622638,10.2665073 C99.5367974,10.2665073 99.7862142,10.2857251 100,10.3116983 L100,6.46242777 C99.808761,6.43971581 99.607008,6.42841806 99.3962596,6.42841806 Z M4.27314582,8.21124913 L4.27314582,6.42329331 L0,6.42329331 L0,22.9969717 L4.27314582,22.9969717 L4.27221123,16.54689 C4.27221123,14.2917665 4.63190876,12.9490816 5.47396778,12.0663432 C6.44616745,10.8886987 7.78834505,10.2665073 9.35750943,10.2665073 C9.6320431,10.2665073 9.88145986,10.2857251 10.0952457,10.3116983 L10.0952457,6.46242777 C9.9041235,6.43971581 9.70225363,6.42841806 9.49162205,6.42841806 C5.99756775,6.42841806 4.27314582,8.21124913 4.27314582,8.21124913 Z M20.2202811,6.1918642 C15.5479517,6.1918642 11.7467701,9.96123521 11.7467701,14.5943597 C11.7467701,19.2274843 15.5479517,22.9968553 20.2202811,22.9968553 C24.892377,22.9968553 28.6935585,19.2274843 28.6935585,14.5943597 C28.6935585,9.96135168 24.892377,6.1918642 20.2202811,6.1918642 Z M20.2242531,18.7804662 C17.8955066,18.7804662 16.0009907,16.9008472 16.0009907,14.5903997 C16.0009907,12.2799522 17.8955066,10.4001003 20.2242531,10.4001003 C22.5529996,10.4001003 24.4475156,12.2798357 24.4475156,14.5903997 C24.4475156,16.9008472 22.5529996,18.7804662 20.2242531,18.7804662 Z M42.5927895,15.5755167 C42.5927895,17.6501091 40.9302836,19.0435756 38.6372849,19.0435756 C36.6285162,18.9664714 36.0101729,17.2132241 36.0101729,15.5450011 L36.0101729,6.51728591 L31.7616767,6.51728591 C31.7598076,8.47331028 31.7616767,14.7426281 31.7616767,16.5481711 C31.7616767,19.8141518 34.5591164,22.9996506 38.3906719,22.9996506 C41.6530665,22.9996506 42.827837,21.233242 42.827837,21.233242 L42.827837,22.989634 L46.9506318,23 L46.9506318,6.51728591 L42.5927895,6.51740238 C42.5927895,6.51740238 42.5927895,13.5010406 42.5927895,15.5755167 Z" id="XMLID_95_"></path>
                    </g>
                </g>
            </g>
        </g>
    </g>
</svg>
