<?xml version="1.0" encoding="UTF-8"?>
<svg width="40px" height="31px" viewBox="0 0 40 31" version="1.1" xmlns="http://www.w3.org/2000/svg" xmlns:xlink="http://www.w3.org/1999/xlink">
    <!-- Generator: Sketch 54.1 (76490) - https://sketchapp.com -->
    <title>190</title>
    <desc>Created with Sketch.</desc>
    <g id="Welcome" stroke="none" stroke-width="1" fill="none" fill-rule="evenodd">
        <g id="Influencers-profile-Copy" transform="translate(-469.000000, -473.000000)" fill-rule="nonzero">
            <g id="Group-18" transform="translate(469.000000, 463.000000)">
                <g id="190" transform="translate(0.000000, 10.000000)">
                    <path d="M13.0280504,21.8181818 C12.8368131,21.2733458 12.7272727,20.6672852 12.7272727,20 C12.7272727,19.3327148 12.8435269,18.7266542 13.045741,18.1818182 L21.8242076,18.1818182 C25.832139,18.1818182 29.0909091,14.9229076 29.0909091,10.9090909 C29.0909091,6.89857717 25.8333865,3.63636364 21.8242076,3.63636364 L10.9030652,3.63636364 C6.89513377,3.63636364 3.63636364,6.89527417 3.63636364,10.9090909 C3.63636364,12.9523315 4.4818886,14.8013428 5.8415661,16.1236881 C5.58566915,17.357798 5.45454545,18.6576644 5.45454545,20 C5.45454545,20.1203306 5.45560123,20.2403259 5.45770821,20.3599688 C2.19610422,18.4728048 0,14.944129 0,10.9090909 C0,4.88700106 4.88679051,0 10.9030652,0 L21.8242076,0 C27.842867,0 32.7272727,4.89143944 32.7272727,10.9090909 C32.7272727,16.9311808 27.8404822,21.8181818 21.8242076,21.8181818 L13.0280504,21.8181818 Z" id="Ring-2" fill="#2E7EFF"></path>
                    <path d="M26.9510645,9.09090909 C27.1421877,9.57808944 27.2727273,10.1783204 27.2727273,10.9090909 C27.2727273,11.5256556 27.1798012,12.1422203 27.0359654,12.7272727 L18.1757924,12.7272727 C14.167861,12.7272727 10.9090909,15.9861833 10.9090909,20 C10.9090909,24.0105137 14.1666135,27.2727273 18.1757924,27.2727273 L29.0969348,27.2727273 C33.1048662,27.2727273 36.3636364,24.0138167 36.3636364,20 C36.3636364,17.8673264 35.442474,15.9462572 33.9769666,14.6148199 C34.2933897,13.7898533 34.5454545,12.601537 34.5454545,10.9090909 C34.5454545,10.7849128 34.5440976,10.6648056 34.5414578,10.5486396 C37.8035214,12.4356846 40,15.964618 40,20 C40,26.0220898 35.1132095,30.9090909 29.0969348,30.9090909 L18.1757924,30.9090909 C12.157133,30.9090909 7.27272727,26.0176515 7.27272727,20 C7.27272727,13.9779102 12.1595178,9.09090909 18.1757924,9.09090909 L26.9510645,9.09090909 Z" id="Ring-1" fill="#C9CFDB"></path>
                </g>
            </g>
        </g>
    </g>
</svg>