<svg xmlns="http://www.w3.org/2000/svg" width="450.001" height="291.001" viewBox="0 0 450.001 291.001">
  <g id="Group_2" data-name="Group 2" transform="translate(5244 -1494)">
    <path id="Subtraction_3" data-name="Subtraction 3" d="M450,291H0V0H450V291h0ZM116.025,36.243A146.023,146.023,0,0,0,97.52,58.907a144.155,144.155,0,0,0,40.693,199.8,142.725,142.725,0,0,0,51.607,21.044,144.834,144.834,0,0,0,27.457,2.63h.011a144.156,144.156,0,0,0,102.219-42.428l14.468,14.484a146.024,146.024,0,0,0,18.505-22.664,143.917,143.917,0,0,0-199.3-199.6,145.931,145.931,0,0,0-22.691,18.56Z" transform="translate(-5244 1494)" fill="#f4f5f8"/>
    <path id="Subtraction_1" data-name="Subtraction 1" d="M309.655,281H0V134.05a149.067,149.067,0,0,0,2.656,27.333,146.95,146.95,0,0,0,144.436,119.3h.011a147.631,147.631,0,0,0,104.68-43.449l8.746,8.756,6.069,6.077a147.924,147.924,0,0,0,43.057-94.673V281Zm0-143.855a147.412,147.412,0,0,0-12.428-50.063A146.5,146.5,0,0,0,266.943,43.1a147.992,147.992,0,0,0-23.069-18.86A146.2,146.2,0,0,0,191.017,2.694,148.376,148.376,0,0,0,163.529,0L309.655,0V137.145ZM0,132.77H0V0H162.266A147.617,147.617,0,0,0,58.218,43.45l-5.35-5.355L43.4,28.617a149.542,149.542,0,0,0-18.951,23.21A148.109,148.109,0,0,0,0,132.77Z" transform="translate(-5174 1499)" fill="#f4f5f8"/>
    <path id="Combined-Shape" d="M252.61,237.889c-57.733,57.8-151.183,57.952-208.726.345S-13.5,87.074,44.229,29.277L59.045,44.11c57.733-57.8,151.183-57.952,208.726-.345s57.388,151.16-.345,208.957Zm-98.156-207.4V13.625c-66.2,0-119.867,53.085-119.867,118.569S88.254,250.763,154.454,250.763v16.861c66.2,0,119.867-53.085,119.867-118.569S220.655,30.486,154.454,30.486Z" transform="translate(-5174.828 1498.34)" fill="#dcdee1" fill-rule="evenodd"/>
    <path id="Combined-Shape-2" data-name="Combined-Shape" d="M154.625,264.163A120.123,120.123,0,0,1,41.64,204.124l12.44-7.182a120.262,120.262,0,0,0,100.545,53.821Zm0-247.38A120.184,120.184,0,0,1,261.611,77.125l-8.131,4.694a120.279,120.279,0,0,0-98.855-51.333Z" transform="translate(-5174.828 1498.34)" fill="#c9cfdb" fill-rule="evenodd"/>
  </g>
</svg>
