<svg id="_190" data-name="190" xmlns="http://www.w3.org/2000/svg" width="22" height="17" viewBox="0 0 22 17">
  <path id="Ring_2" data-name="Ring 2" d="M12,12H7.166A3.011,3.011,0,0,1,7,11a2.862,2.862,0,0,1,.175-1H12a4,4,0,0,0,0-8H6A4,4,0,0,0,3.213,8.867,10.523,10.523,0,0,0,3,11c0,.066,0,.131,0,.2A6,6,0,0,1,6,0H12a6,6,0,0,1,0,12Z" fill="#2e7eff"/>
  <path id="Ring_1" data-name="Ring 1" d="M12,12H6A6,6,0,0,1,6,0h4.826A2.729,2.729,0,0,1,11,1a4.217,4.217,0,0,1-.13,1H6a4,4,0,0,0,0,8H12a4,4,0,0,0,2.684-6.961A5.761,5.761,0,0,0,15,1q0-.1,0-.2A6,6,0,0,1,12,12Z" transform="translate(4 5)" fill="#2e7eff"/>
</svg>
