<svg width="16" height="17" viewBox="0 0 16 17" fill="none" xmlns="http://www.w3.org/2000/svg">
<path d="M0.397052 1.05379L0.46967 0.96967C0.735936 0.703403 1.1526 0.679197 1.44621 0.897052L1.53033 0.96967L8 7.439L14.4697 0.96967C14.7626 0.676777 15.2374 0.676777 15.5303 0.96967C15.8232 1.26256 15.8232 1.73744 15.5303 2.03033L9.061 8.5L15.5303 14.9697C15.7966 15.2359 15.8208 15.6526 15.6029 15.9462L15.5303 16.0303C15.2641 16.2966 14.8474 16.3208 14.5538 16.1029L14.4697 16.0303L8 9.561L1.53033 16.0303C1.23744 16.3232 0.762563 16.3232 0.46967 16.0303C0.176777 15.7374 0.176777 15.2626 0.46967 14.9697L6.939 8.5L0.46967 2.03033C0.203403 1.76406 0.179197 1.3474 0.397052 1.05379L0.46967 0.96967L0.397052 1.05379Z" fill="#FAFAFF"/>
</svg>
