<svg width="16" height="12" viewBox="0 0 16 12" fill="none" xmlns="http://www.w3.org/2000/svg">
<path d="M0 1.25C0 0.835786 0.335786 0.5 0.75 0.5H15.25C15.6642 0.5 16 0.835786 16 1.25C16 1.66421 15.6642 2 15.25 2H0.75C0.335786 2 0 1.66421 0 1.25ZM0 6.25C0 5.83579 0.335786 5.5 0.75 5.5H15.25C15.6642 5.5 16 5.83579 16 6.25C16 6.66421 15.6642 7 15.25 7H0.75C0.335786 7 0 6.66421 0 6.25ZM0.75 10.5C0.335786 10.5 0 10.8358 0 11.25C0 11.6642 0.335786 12 0.75 12H15.25C15.6642 12 16 11.6642 16 11.25C16 10.8358 15.6642 10.5 15.25 10.5H0.75Z" fill="#FAFAFF"/>
</svg>
