<svg xmlns="http://www.w3.org/2000/svg" width="26.5" height="23.72" viewBox="0 0 26.5 23.72">
  <g id="_60" data-name="60" transform="translate(-1.75 -3.28)">
    <g id="Pages" transform="translate(3.75 5.265)" fill="none" stroke-linecap="round" stroke-linejoin="round" stroke-miterlimit="10">
      <path d="M12.5,2.235,21.257.045a1,1,0,0,1,1.243.97V16.454a1,1,0,0,1-.758.97L12.5,19.734ZM.758,17.424A1,1,0,0,1,0,16.454V1.015A1,1,0,0,1,1.243.045L10,2.235v17.5Z" stroke="none"/>
      <path d="M 0.9983329772949219 0.01473236083984375 C 0.4622745513916016 0.01473236083984375 0 0.4492931365966797 0 1.015201568603516 L 0 16.45380020141602 C 0 16.91279983520508 0.3122997283935547 17.31240081787109 0.7577991485595703 17.42399978637695 L 9.999899864196777 19.73430061340332 L 9.999899864196777 2.234701156616211 L 1.242900848388672 0.04500007629394531 C 1.16057014465332 0.02447700500488281 1.078653335571289 0.01473236083984375 0.9983329772949219 0.01473236083984375 M 21.50166702270508 0.01473236083984375 C 21.42138290405273 0.01473236083984375 21.33939170837402 0.02448654174804688 21.25709915161133 0.04500007629394531 L 12.50010013580322 2.234701156616211 L 12.50010013580322 19.73430061340332 L 21.74220085144043 17.42399978637695 C 22.18770027160645 17.31240081787109 22.5 16.91279983520508 22.5 16.45380020141602 L 22.5 1.015201568603516 C 22.5 0.4492530822753906 22.03777313232422 0.01473236083984375 21.50166702270508 0.01473236083984375 M 0.9983291625976562 -1.985269546508789 C 1.242919921875 -1.985269546508789 1.487939834594727 -1.955108642578125 1.726579666137695 -1.8956298828125 L 10.48507022857666 0.2944412231445312 C 10.77154159545898 0.3660755157470703 11.03051090240479 0.4974937438964844 11.25 0.6733684539794922 C 11.46948909759521 0.4974937438964844 11.72845840454102 0.3660755157470703 12.01492977142334 0.2944412231445312 L 20.77193069458008 -1.895259857177734 C 21.01206016540527 -1.955108642578125 21.257080078125 -1.985269546508789 21.50167083740234 -1.985269546508789 C 23.15494918823242 -1.985269546508789 24.5 -0.6392593383789062 24.5 1.015201568603516 L 24.5 16.45380020141602 C 24.5 17.83224105834961 23.56579971313477 19.02898025512695 22.22818946838379 19.36404991149902 L 12.98513031005859 21.67460060119629 C 12.8248929977417 21.71465492248535 12.66200065612793 21.73431968688965 12.50018882751465 21.73431968688965 C 12.05864906311035 21.73431968688965 11.62449550628662 21.58806419372559 11.26926040649414 21.31070137023926 C 11.26280117034912 21.3056583404541 11.25638675689697 21.30058479309082 11.25 21.29547119140625 C 11.24361324310303 21.30058479309082 11.23719882965088 21.3056583404541 11.23073959350586 21.31070137023926 C 10.87553405761719 21.58804130554199 10.44131278991699 21.73431968688965 9.999811172485352 21.73431968688965 C 9.837963104248047 21.73431968688965 9.675143241882324 21.71466445922852 9.514869689941406 21.67460060119629 L 0.2727699279785156 19.36429977416992 C -1.065799713134766 19.02898025512695 -2 17.83224105834961 -2 16.45380020141602 L -2 1.015201568603516 C -2 -0.6392593383789062 -0.6549491882324219 -1.985269546508789 0.9983291625976562 -1.985269546508789 Z" stroke="none" fill="#c9cfdb"/>
    </g>
    <path id="Path_144" data-name="Path 144" d="M0,0,5,1.25" transform="translate(6.25 10)" fill="none" stroke="#2e7eff" stroke-linecap="round" stroke-linejoin="round" stroke-miterlimit="10" stroke-width="1"/>
    <path id="Path_144-2" data-name="Path 144" d="M0,0,5,1.25" transform="translate(6.25 13.75)" fill="none" stroke="#2e7eff" stroke-linecap="round" stroke-linejoin="round" stroke-miterlimit="10" stroke-width="1"/>
    <path id="Path_144-3" data-name="Path 144" d="M0,0,5,1.25" transform="translate(6.25 17.5)" fill="none" stroke="#2e7eff" stroke-linecap="round" stroke-linejoin="round" stroke-miterlimit="10" stroke-width="1"/>
    <path id="Path_148" data-name="Path 148" d="M0,1.25,5,0" transform="translate(18.75 10)" fill="none" stroke="#2e7eff" stroke-linecap="round" stroke-miterlimit="10" stroke-width="1"/>
    <path id="Path_148-2" data-name="Path 148" d="M0,1.25,5,0" transform="translate(18.75 13.75)" fill="none" stroke="#2e7eff" stroke-linecap="round" stroke-miterlimit="10" stroke-width="1"/>
    <path id="Path_148-3" data-name="Path 148" d="M0,1.25,5,0" transform="translate(18.75 17.5)" fill="none" stroke="#2e7eff" stroke-linecap="round" stroke-miterlimit="10" stroke-width="1"/>
  </g>
</svg>
