<?xml version="1.0" encoding="iso-8859-1"?>
<!-- Generator: Adobe Illustrator 19.0.0, SVG Export Plug-In . SVG Version: 6.00 Build 0)  -->
<svg version="1.1" id="logo" xmlns="http://www.w3.org/2000/svg" xmlns:xlink="http://www.w3.org/1999/xlink" x="0px" y="0px"
	 viewBox="0 0 855.997 197.475" style="enable-background:new 0 0 855.997 197.475;" xml:space="preserve">
<g id="XMLID_2_">
	<g id="XMLID_94_">
		<path id="XMLID_95_" style="fill:#2E7EFF;" d="M504.51,163.916c-5.26,0-9.581-1.737-12.834-5.152
			c-3.284-3.432-4.815-9.268-4.815-18.367V89.1h38.294V55.031h-38.294V0H450.14v55.031h-22.133V89.1h22.133v53.669
			c0,10.568,1.213,19.465,3.606,26.446c2.331,6.807,5.559,12.384,9.597,16.578c3.996,4.155,8.685,7.013,14.335,8.737
			c5.961,1.818,12.506,2.74,19.456,2.74c10.163,0,18.269-1.364,24.095-4.054c4.224-1.951,2.209-0.917,4.173-1.951v-36.165
			c-3.903,3.274-7.575,5.474-8.238,5.847C513.672,162.917,509.415,163.916,504.51,163.916z M550.246,197.447h36.721V55.031h-36.721
			V197.447z M568.53,0c-5.235,0-9.634,1.735-13.445,5.304c-3.713,3.479-5.519,7.873-5.519,13.431c0,5.745,1.804,10.227,5.519,13.704
			c3.808,3.568,8.205,5.303,13.445,5.303c5.223,0,9.567-1.725,13.282-5.275c3.642-3.48,5.414-7.973,5.414-13.732
			c0-5.573-1.772-9.975-5.413-13.458C578.094,1.726,573.749,0,568.53,0z M686.646,55.06c-28.078,0-38.188,15.261-38.188,15.261
			V55.135l-35.483-0.09v142.402h37.506c0,0,0-60.322,0-78.245c0-17.923,14.309-29.962,34.043-29.962
			c17.289,0.666,22.61,15.814,22.61,30.226v77.982h36.565c0.016-16.899,0-71.051,0-86.65
			C743.698,82.581,719.622,55.06,686.646,55.06z M850.829,55.193c-29.908,0-44.67,15.307-44.67,15.307V55.149h-36.578v142.298
			h36.578l-0.008-55.379c0-19.362,3.079-30.89,10.288-38.469c8.322-10.111,19.811-15.453,33.243-15.453
			c2.35,0,4.485,0.165,6.315,0.388V55.485C854.36,55.29,852.633,55.193,850.829,55.193z M36.578,70.5V55.149H0v142.298h36.578
			l-0.008-55.379c0-19.362,3.079-30.89,10.287-38.469C55.179,93.488,66.668,88.146,80.1,88.146c2.35,0,4.485,0.165,6.315,0.388
			V55.485c-1.636-0.195-3.364-0.292-5.167-0.292C51.339,55.193,36.578,70.5,36.578,70.5z M173.085,53.162
			c-39.995,0-72.533,32.363-72.533,72.142c0,39.779,32.538,72.142,72.533,72.142c39.993,0,72.531-32.363,72.531-72.142
			C245.616,85.526,213.078,53.162,173.085,53.162z M173.119,161.245c-19.934,0-36.151-16.138-36.151-35.975
			c0-19.837,16.217-35.977,36.151-35.977c19.934,0,36.151,16.139,36.151,35.977C209.27,145.107,193.053,161.245,173.119,161.245z
			 M364.593,133.728c0,17.812-14.231,29.776-33.859,29.776c-17.195-0.662-22.488-15.715-22.488-30.038v-77.51h-36.367
			c-0.016,16.794,0,70.621,0,86.123c0,28.041,23.946,55.391,56.744,55.391c27.926,0,37.982-15.166,37.982-15.166v15.08l35.291,0.089
			V55.957h-37.303C364.593,55.957,364.593,115.917,364.593,133.728z"/>
	</g>
</g>
<g id="XMLID_46_">
</g>
<g id="XMLID_47_">
</g>
<g id="XMLID_48_">
</g>
<g id="XMLID_49_">
</g>
<g id="XMLID_50_">
</g>
<g id="XMLID_51_">
</g>
</svg>
