<svg xmlns="http://www.w3.org/2000/svg" width="34.348" height="29.565" viewBox="0 0 34.348 29.565">
  <g id="bought_this" transform="translate(-0.546 -5.268)">
    <path id="Wheels" d="M16.109,3.167a3.222,3.222,0,0,1,6.443,0,3.222,3.222,0,0,1-6.443,0ZM0,3.167A3.2,3.2,0,0,1,3.222,0,3.2,3.2,0,0,1,6.444,3.167,3.2,3.2,0,0,1,3.222,6.333,3.2,3.2,0,0,1,0,3.167Z" transform="translate(9.665 28.5)" fill="#2e7eff"/>
    <path id="Frame" d="M29,19H9.665L3.222,0H0" transform="translate(1.611 6.333)" fill="none" stroke="#c9cfdb" stroke-linecap="round" stroke-linejoin="round" stroke-miterlimit="10" stroke-width="2.13"/>
    <path id="Body" d="M3.79,11.083H22.742L25.774,0H0" transform="translate(8.054 9.5)" fill="none" stroke="#c9cfdb" stroke-linecap="round" stroke-linejoin="round" stroke-miterlimit="10" stroke-width="2.13"/>
  </g>
</svg>
