<svg xmlns="http://www.w3.org/2000/svg" xmlns:xlink="http://www.w3.org/1999/xlink" width="48" height="48" viewBox="0 0 48 48">
  <defs>
    <style>
      .instagram-circle {
        fill:url(#instagram-circle);
      }
      .instagram-icon {
        fill:#fff;
      }
    </style>
    <linearGradient id="instagram-circle" x1="0.503" x2="0.5" y2="1" gradientUnits="objectBoundingBox">
      <stop offset="0" stop-color="#7024c4"/>
      <stop offset="0.415" stop-color="#c21975"/>
      <stop offset="0.702" stop-color="#c74c4d"/>
      <stop offset="1" stop-color="#e09b3d"/>
    </linearGradient>
  </defs>
  <g transform="matrix(1, 0, 0, 1, -9, -6)">
    <circle class="instagram-circle social-circle" cx="24" cy="24" r="24" transform="translate(9 6)"/>
  </g>
  <path class="instagram-icon social-icon" d="M14.55,20.723H6.173A6.18,6.18,0,0,1,0,14.55V6.173A6.18,6.18,0,0,1,6.173,0H14.55a6.18,6.18,0,0,1,6.173,6.173V14.55A6.18,6.18,0,0,1,14.55,20.723ZM6.173,2.084A4.093,4.093,0,0,0,2.084,6.173V14.55a4.093,4.093,0,0,0,4.089,4.088H14.55a4.093,4.093,0,0,0,4.088-4.088V6.173A4.093,4.093,0,0,0,14.55,2.084Zm4.188,13.636a5.36,5.36,0,1,1,5.36-5.359A5.366,5.366,0,0,1,10.361,15.721Zm0-8.634a3.275,3.275,0,1,0,3.275,3.275A3.279,3.279,0,0,0,10.361,7.087Zm5.37-.76a1.284,1.284,0,1,1,1.285-1.284A1.286,1.286,0,0,1,15.731,6.326Z" transform="translate(13.639 13.639)"/>
</svg>
