<svg xmlns="http://www.w3.org/2000/svg" xmlns:xlink="http://www.w3.org/1999/xlink" width="48" height="48" viewBox="0 0 48 48">
  <defs>
    <style>
      .youtube-circle {
        fill:#f52929;
      }
      .youtube-icon {
        fill:#fff;
      }
    </style>
  </defs>
  <g transform="matrix(1, 0, 0, 1, -9, -6)">
    <circle class="youtube-circle social-circle" cx="24" cy="24" r="24" transform="translate(9 6)"/>
  </g>
  <path class="youtube-icon social-icon" d="M10.971,17.066h0c-.057,0-5.733-.041-7.453-.233-.092-.022-.205-.038-.335-.057a3.076,3.076,0,0,1-2.086-.99,5.835,5.835,0,0,1-.87-2.4A38.849,38.849,0,0,1,0,9.464V7.641C0,5.689.225,3.7.227,3.685a5.306,5.306,0,0,1,.87-2.4,2.989,2.989,0,0,1,2.128-1h0L3.291.272C6.32.042,10.925,0,10.971,0s4.652.042,7.68.272l.1.009a2.793,2.793,0,0,1,2.09,1,5.835,5.835,0,0,1,.87,2.4c0,.02.227,2,.227,3.956V9.464c0,1.913-.225,3.9-.227,3.917a5.837,5.837,0,0,1-.87,2.4,2.989,2.989,0,0,1-2.128,1h0l-.061.006C15.621,17.063,11.017,17.066,10.971,17.066ZM8.323,4.615v8.417l7.188-4.111Z" transform="translate(13.029 15.467)"/>
</svg>
