<svg class="twitter" xmlns="http://www.w3.org/2000/svg" width="18.44" height="15.97" viewBox="0 0 18.44 15.97">
<defs>
    <style>
      .twitter .cls-1 {
        fill-rule: evenodd;
        opacity: 0.6;
      }
    </style>
  </defs>
  <path id="Forma_1" data-name="Forma 1" class="cls-1" d="M1322.92,2236.29a7.248,7.248,0,0,1-2.41.98,3.672,3.672,0,0,0-2.75-1.27,3.907,3.907,0,0,0-3.78,4.03,4.557,4.557,0,0,0,.09.92,10.537,10.537,0,0,1-7.79-4.21,4.232,4.232,0,0,0-.51,2.02,4.119,4.119,0,0,0,1.68,3.36,3.489,3.489,0,0,1-1.71-.51v0.05a3.977,3.977,0,0,0,3.03,3.96,3.588,3.588,0,0,1-.99.14,4.069,4.069,0,0,1-.71-0.07,3.812,3.812,0,0,0,3.52,2.8,7.274,7.274,0,0,1-4.69,1.72c-0.3,0-.6-0.02-0.9-0.05a10.239,10.239,0,0,0,5.79,1.81c6.96,0,10.76-6.14,10.76-11.47l-0.02-.53a7.521,7.521,0,0,0,1.89-2.08,6.888,6.888,0,0,1-2.17.63A4.031,4.031,0,0,0,1322.92,2236.29Z" transform="translate(-1305 -2236)"/>
</svg>
