<?xml version="1.0" encoding="UTF-8"?>
<svg width="32px" height="32px" viewBox="0 0 32 32" version="1.1" xmlns="http://www.w3.org/2000/svg" xmlns:xlink="http://www.w3.org/1999/xlink">
    <!-- Generator: Sketch 54.1 (76490) - https://sketchapp.com -->
    <title>users</title>
    <desc>Created with Sketch.</desc>
    <g id="Welcome" stroke="none" stroke-width="1" fill="none" fill-rule="evenodd">
        <g id="Preview---influencers" transform="translate(-926.000000, -276.000000)">
            <g id="share_white" transform="translate(926.000000, 276.000000)">
                <path d="M11.0327369,15.9303409 C7.80923913,15.4618264 5.33333333,12.6867193 5.33333333,9.33333333 C5.33333333,5.651435 8.31810167,2.66666667 12,2.66666667 C13.8319227,2.66666667 15.4912678,3.40555931 16.6962661,4.60157544 C15.7959131,4.94241144 14.9620438,5.41850575 14.219456,6.00506071 C13.584406,5.58073491 12.8210949,5.33333333 12,5.33333333 C9.790861,5.33333333 8,7.12419433 8,9.33333333 C8,11.0759665 9.11436576,12.5583257 10.6693649,13.1066783 C10.6675695,13.1820123 10.6666667,13.2575674 10.6666667,13.3333333 C10.6666667,14.2345403 10.7943953,15.1059147 11.0327369,15.9303409 Z M11.5648416,17.3333333 C12.0396394,18.3328064 12.686844,19.234506 13.468023,20 L6.66666667,20 C4.85710167,20 3.80751714,20.699723 3.19256959,21.9296181 C2.96556553,22.3836262 2.81556451,22.8836296 2.73185857,23.3858653 C2.68235727,23.6828731 2.66666667,23.9025415 2.66666667,24 C2.66666667,24.7363797 2.069713,25.3333333 1.33333333,25.3333333 C0.596953667,25.3333333 -7.10542736e-14,24.7363797 -7.10542736e-14,24 C-7.10542736e-14,23.144817 0.198226909,21.9554555 0.807430412,20.7370485 C1.85914952,18.6336103 3.809565,17.3333333 6.66666667,17.3333333 L11.5648416,17.3333333 Z" id="Behind" fill="#FFFFFF" fill-rule="nonzero"></path>
                <path d="M9.33333333,28 C9.33333333,28 9.33333333,22.6666667 14.6666667,22.6666667 C20,22.6666667 19.9916687,22.6666667 25.3333333,22.6666667 C30.674998,22.6666667 30.674998,28 30.674998,28" id="Body" stroke="#FFFFFF" stroke-width="2.66666667" stroke-linecap="round" stroke-linejoin="round"></path>
                <circle id="Head" stroke="#FFFFFF" stroke-width="2.66666667" cx="20" cy="13.3333333" r="5.33333333"></circle>
            </g>
        </g>
    </g>
</svg>