<svg xmlns="http://www.w3.org/2000/svg" width="431.178" height="351.591" viewBox="0 0 431.178 351.591">
  <g id="doodle_step_1" data-name="doodle step 1" transform="translate(-439.43 56.308)">
    <path id="Path_1010" data-name="Path 1010" d="M442.162,289.688a15.865,15.865,0,0,0,12.307,1.453c5.088-1.515,8.433-5.74,13.253-7.6,5.717-2.2,9.743-.587,14.69,2.607,3.7,2.387,7.709,4.871,12.108,4.7,4.508-.178,8.361-3.093,12.149-5.543s8.423-4.6,12.677-3.1c3.709,1.309,5.943,4.971,8.728,7.747s7.558,4.7,10.467,2.051" fill="none" stroke="#d9dde1" stroke-linecap="round" stroke-miterlimit="10" stroke-width="4"/>
    <path id="Path_1011" data-name="Path 1011" d="M442.267,274.4c7.218,7.052,18.357.184,25.154-3.606,4.015-2.239,8.614-4.087,13.119-3.167,4,.818,7.238,3.672,10.931,5.415a21.059,21.059,0,0,0,18.623-.473" fill="none" stroke="#d9dde1" stroke-linecap="round" stroke-miterlimit="10" stroke-width="4"/>
    <path id="Path_1002" data-name="Path 1002" d="M728.508,292.613c1.163,2.039.134,3.975-.53,7.248,6.089,2.031,13.419-.286,18.567-3.724,8.3-5.545,14.145-16.139,6.514-24.619-5.956-6.619-15.682-6.266-23.723-4.263-3.931.979-7.738,3.069-9.965,6.452s-2.527,8.183-.047,11.386c1.613,2.084,4.1,3.249,6.283,4.732A9.077,9.077,0,0,1,728.508,292.613Z" transform="translate(111.949 -320.232)" fill="none" stroke="#d9dde1" stroke-linecap="round" stroke-miterlimit="10" stroke-width="4"/>
  </g>
</svg>
